<?xml version="1.0" encoding="UTF-8" standalone="no"?>
<svg
   xmlns:dc="http://purl.org/dc/elements/1.1/"
   xmlns:cc="http://creativecommons.org/ns#"
   xmlns:rdf="http://www.w3.org/1999/02/22-rdf-syntax-ns#"
   xmlns:svg="http://www.w3.org/2000/svg"
   xmlns="http://www.w3.org/2000/svg"
   xmlns:sodipodi="http://sodipodi.sourceforge.net/DTD/sodipodi-0.dtd"
   xmlns:inkscape="http://www.inkscape.org/namespaces/inkscape"
   width="210mm"
   height="297mm"
   viewBox="0 0 210 297"
   version="1.1"
   id="svg8"
   inkscape:version="1.0.2 (e86c870879, 2021-01-15, custom)"
   sodipodi:docname="X-Keys.svg"
   inkscape:export-filename="C:\Users\braus\Downloads\VM Macropad\Keycaps\X-Keys.png"
   inkscape:export-xdpi="600.16785"
   inkscape:export-ydpi="600.16785">
  <defs
     id="defs2">
    <clipPath
       clipPathUnits="userSpaceOnUse"
       id="clipPath849">
      <path
         d="M 0,396 H 612 V 0 H 0 Z"
         id="path847" />
    </clipPath>
    <clipPath
       clipPathUnits="userSpaceOnUse"
       id="clipPath1195">
      <path
         d="M 0,396 H 612 V 0 H 0 Z"
         id="path1193" />
    </clipPath>
    <filter
       inkscape:collect="always"
       style="color-interpolation-filters:sRGB"
       id="filter3055"
       x="-4.6582891e-08"
       width="1.0000001"
       y="-5.9056661e-08"
       height="1.0000001">
      <feGaussianBlur
         inkscape:collect="always"
         stdDeviation="1.5023483e-06"
         id="feGaussianBlur3057" />
    </filter>
    <clipPath
       clipPathUnits="userSpaceOnUse"
       id="clipPath3502">
      <path
         d="m 104.68833,44.78579 v 4.798212 a 1.3215922,1.3215922 0 0 1 -1.32159,1.321593 h -2.41697 c -0.35718,0 -0.69453,-0.142875 -0.94059,-0.396874 l -2.595563,-2.635248 c 0,0 0.41672,-0.408781 0.42862,-0.412748 0.0714,-0.06349 0.16272,-0.09922 0.26194,-0.09922 0.0714,0 0.1389,0.01984 0.19844,0.05556 0.0119,0.004 1.42478,0.813591 1.42478,0.813591 v -3.940963 a 0.49609315,0.49609315 0 0 1 0.496093,-0.496093 0.49609315,0.49609315 0 0 1 0.4961,0.496093 v 2.317746 h 0.3294 v -3.143246 a 0.49609315,0.49609315 0 0 1 0.49609,-0.496093 c 0.27782,0 0.4961,0.22225 0.4961,0.496093 v 3.143246 h 0.33337 V 43.7936 c 0,-0.273844 0.21828,-0.496094 0.49609,-0.496094 a 0.49609315,0.49609315 0 0 1 0.4961,0.496094 v 2.813839 h 0.3294 v -1.821653 a 0.49609315,0.49609315 0 0 1 0.4961,-0.496093 0.49609315,0.49609315 0 0 1 0.49609,0.496093 z"
         id="path3504"
         style="display:inline;stroke-width:0.396874;filter:url(#filter3055)" />
    </clipPath>
    <filter
       inkscape:collect="always"
       style="color-interpolation-filters:sRGB"
       id="filter3055-0"
       x="-4.658289e-08"
       width="1.0000001"
       y="-5.905666e-08"
       height="1.0000001">
      <feGaussianBlur
         inkscape:collect="always"
         stdDeviation="1.5023483e-06"
         id="feGaussianBlur3057-0" />
    </filter>
    <filter
       inkscape:collect="always"
       style="color-interpolation-filters:sRGB"
       id="filter3055-4"
       x="-4.658289e-08"
       width="1.0000001"
       y="-5.905666e-08"
       height="1.0000001">
      <feGaussianBlur
         inkscape:collect="always"
         stdDeviation="1.5023483e-06"
         id="feGaussianBlur3057-7" />
    </filter>
    <filter
       inkscape:collect="always"
       style="color-interpolation-filters:sRGB"
       id="filter3055-9"
       x="-4.658289e-08"
       width="1.0000001"
       y="-5.905666e-08"
       height="1.0000001">
      <feGaussianBlur
         inkscape:collect="always"
         stdDeviation="1.5023483e-06"
         id="feGaussianBlur3057-4" />
    </filter>
  </defs>
  <sodipodi:namedview
     id="base"
     pagecolor="#ffffff"
     bordercolor="#666666"
     borderopacity="1.0"
     inkscape:pageopacity="0.0"
     inkscape:pageshadow="2"
     inkscape:zoom="2.44"
     inkscape:cx="216.61782"
     inkscape:cy="217.86727"
     inkscape:document-units="px"
     inkscape:current-layer="layer3"
     inkscape:document-rotation="0"
     showgrid="false"
     inkscape:window-width="1500"
     inkscape:window-height="948"
     inkscape:window-x="-6"
     inkscape:window-y="-6"
     inkscape:window-maximized="1"
     units="mm"
     showguides="false" />
  <metadata
     id="metadata5">
    <rdf:RDF>
      <cc:Work
         rdf:about="">
        <dc:format>image/svg+xml</dc:format>
        <dc:type
           rdf:resource="http://purl.org/dc/dcmitype/StillImage" />
        <dc:title />
      </cc:Work>
    </rdf:RDF>
  </metadata>
  <g
     inkscape:groupmode="layer"
     id="layer5"
     inkscape:label="Background"
     sodipodi:insensitive="true">
    <rect
       style="fill:#ffffff;fill-opacity:1;stroke:none;stroke-width:5.00769"
       id="rect963"
       width="80.962502"
       height="80.962502"
       x="17.197916"
       y="17.197916" />
  </g>
  <g
     inkscape:groupmode="layer"
     id="layer2"
     inkscape:label="Case"
     style="display:inline"
     sodipodi:insensitive="true">
    <rect
       style="display:inline;mix-blend-mode:normal;fill:#666666;fill-opacity:1;stroke:#000000;stroke-width:5.26915;stroke-miterlimit:4;stroke-dasharray:none;stroke-opacity:1"
       id="rect960"
       width="70.401688"
       height="70.401688"
       x="22.478323"
       y="22.478323"
       rx="1.1153024"
       ry="1.1153024" />
  </g>
  <g
     inkscape:label="Outline"
     inkscape:groupmode="layer"
     id="layer1"
     style="display:inline;mix-blend-mode:normal"
     sodipodi:insensitive="true">
    <g
       id="g1025"
       transform="matrix(0.35277777,0,0,-0.35277777,74.127431,74.127431)"
       style="fill:#d5cfb7;fill-opacity:1">
      <path
         d="m 0,0 h 41.558 v -38.045 l -0.266,-0.102 -2.862,-1.001 -2.908,-0.848 -2.948,-0.695 -2.981,-0.539 -3.005,-0.383 -3.02,-0.226 -3.029,-0.066 -3.028,0.092 -3.018,0.25 -3.002,0.407 -2.976,0.564 -2.942,0.72 L 2.672,-39 0,-38.041 Z"
         style="fill:#d5cfb7;fill-opacity:1;stroke:#231f20;stroke-width:0.25;stroke-linecap:butt;stroke-linejoin:miter;stroke-miterlimit:3.864;stroke-dasharray:none;stroke-opacity:1"
         id="path1027" />
    </g>
    <g
       id="g1029"
       transform="matrix(0.35277777,0,0,-0.35277777,58.252431,74.127431)"
       style="fill:#d5cfb7;fill-opacity:1">
      <path
         d="m 0,0 h 41.558 v -38.045 l -0.265,-0.102 -2.862,-1.001 -2.908,-0.848 -2.949,-0.694 -2.98,-0.54 -3.005,-0.383 -3.021,-0.226 -3.028,-0.066 -3.028,0.092 -3.019,0.25 -3.001,0.407 -2.977,0.565 -2.942,0.719 L 2.672,-39 0,-38.041 Z"
         style="fill:#d5cfb7;fill-opacity:1;stroke:#231f20;stroke-width:0.25;stroke-linecap:butt;stroke-linejoin:miter;stroke-miterlimit:3.864;stroke-dasharray:none;stroke-opacity:1"
         id="path1031" />
    </g>
    <g
       id="g1033"
       transform="matrix(0.35277777,0,0,-0.35277777,42.377431,74.127431)"
       style="fill:#d5cfb7;fill-opacity:1">
      <path
         d="m 0,0 h 41.558 v -38.045 l -0.265,-0.102 -2.862,-1.001 -2.908,-0.848 -2.949,-0.694 -2.98,-0.54 -3.005,-0.383 -3.021,-0.226 -3.028,-0.066 -3.028,0.092 -3.019,0.25 -3.001,0.407 -2.977,0.564 -2.942,0.72 L 2.672,-39 0,-38.041 Z"
         style="fill:#d5cfb7;fill-opacity:1;stroke:#231f20;stroke-width:0.25;stroke-linecap:butt;stroke-linejoin:miter;stroke-miterlimit:3.864;stroke-dasharray:none;stroke-opacity:1"
         id="path1035" />
    </g>
    <g
       id="g1037"
       transform="matrix(0.35277777,0,0,-0.35277777,26.502431,74.127431)"
       style="fill:#d5cfb7;fill-opacity:1">
      <path
         d="m 0,0 h 41.557 v -38.045 l -0.265,-0.102 -2.862,-1 -2.908,-0.849 -2.948,-0.694 -2.981,-0.54 -3.005,-0.383 -3.02,-0.226 -3.029,-0.066 -3.028,0.092 -3.018,0.25 -3.002,0.408 -2.976,0.564 -2.942,0.719 L 2.672,-39 0,-38.041 Z"
         style="fill:#d5cfb7;fill-opacity:1;stroke:#231f20;stroke-width:0.25;stroke-linecap:butt;stroke-linejoin:miter;stroke-miterlimit:3.864;stroke-dasharray:none;stroke-opacity:1"
         id="path1039" />
    </g>
    <g
       id="g1073"
       transform="matrix(0.35277777,0,0,-0.35277777,74.127431,58.252431)"
       style="fill:#ffffff;fill-opacity:1">
      <path
         d="m 0,0 h 41.558 v -38.045 l -0.266,-0.102 -2.862,-1.001 -2.908,-0.848 -2.948,-0.695 -2.981,-0.539 -3.005,-0.384 -3.02,-0.225 -3.029,-0.067 -3.028,0.092 -3.018,0.251 -3.002,0.407 -2.976,0.564 -2.942,0.72 L 2.672,-39 0,-38.041 Z"
         style="fill:#ffffff;fill-opacity:1;stroke:#231f20;stroke-width:0.25;stroke-linecap:butt;stroke-linejoin:miter;stroke-miterlimit:3.864;stroke-dasharray:none;stroke-opacity:1"
         id="path1075" />
    </g>
    <g
       id="g1077"
       transform="matrix(0.35277777,0,0,-0.35277777,58.252431,58.252431)"
       style="fill:#ffffff;fill-opacity:1">
      <path
         d="m 0,0 h 41.558 v -38.045 l -0.265,-0.102 -2.862,-1.001 -2.908,-0.848 -2.949,-0.695 -2.98,-0.539 -3.005,-0.383 -3.021,-0.226 -3.028,-0.066 -3.028,0.092 -3.019,0.25 -3.001,0.407 -2.977,0.564 -2.942,0.72 L 2.672,-39 0,-38.041 Z"
         style="fill:#ffffff;fill-opacity:1;stroke:#231f20;stroke-width:0.25;stroke-linecap:butt;stroke-linejoin:miter;stroke-miterlimit:3.864;stroke-dasharray:none;stroke-opacity:1"
         id="path1079" />
    </g>
    <g
       id="g1081"
       transform="matrix(0.35277777,0,0,-0.35277777,42.377431,58.252431)"
       style="fill:#ffffff;fill-opacity:1">
      <path
         d="m 0,0 h 41.558 v -38.045 l -0.265,-0.102 -2.862,-1.001 -2.908,-0.848 -2.949,-0.694 -2.98,-0.54 -3.005,-0.383 -3.021,-0.226 -3.028,-0.066 -3.028,0.092 -3.019,0.25 -3.001,0.407 -2.977,0.564 -2.942,0.72 L 2.672,-39 0,-38.041 Z"
         style="fill:#ffffff;fill-opacity:1;stroke:#231f20;stroke-width:0.25;stroke-linecap:butt;stroke-linejoin:miter;stroke-miterlimit:3.864;stroke-dasharray:none;stroke-opacity:1"
         id="path1083" />
    </g>
    <g
       id="g1085"
       transform="matrix(0.35277777,0,0,-0.35277777,26.502431,58.252431)"
       style="fill:#ffffff;fill-opacity:1">
      <path
         d="m 0,0 h 41.557 v -38.045 l -0.265,-0.102 -2.862,-1.001 -2.908,-0.848 -2.948,-0.694 -2.981,-0.54 -3.005,-0.383 -3.02,-0.226 -3.029,-0.066 -3.028,0.092 -3.018,0.25 -3.002,0.407 -2.976,0.565 -2.942,0.719 L 2.672,-39 0,-38.041 Z"
         style="fill:#ffffff;fill-opacity:1;stroke:#231f20;stroke-width:0.25;stroke-linecap:butt;stroke-linejoin:miter;stroke-miterlimit:3.864;stroke-dasharray:none;stroke-opacity:1"
         id="path1087" />
    </g>
    <g
       id="g1121"
       transform="matrix(0.35277777,0,0,-0.35277777,74.127431,42.377431)"
       style="fill:#ffffff;fill-opacity:1">
      <path
         d="m 0,0 h 41.558 v -38.045 l -0.265,-0.102 -2.863,-1.001 -2.908,-0.848 -2.948,-0.695 -2.981,-0.54 -3.005,-0.383 -3.02,-0.225 -3.029,-0.067 -3.028,0.092 -3.018,0.251 -3.002,0.407 -2.976,0.564 -2.942,0.72 L 2.672,-39 0,-38.041 Z"
         style="fill:#ffffff;fill-opacity:1;stroke:#231f20;stroke-width:0.25;stroke-linecap:butt;stroke-linejoin:miter;stroke-miterlimit:3.864;stroke-dasharray:none;stroke-opacity:1"
         id="path1123" />
    </g>
    <g
       id="g1125"
       transform="matrix(0.35277777,0,0,-0.35277777,58.252431,42.377431)"
       style="fill:#ffffff;fill-opacity:1">
      <path
         d="m 0,0 h 41.558 v -38.045 l -0.265,-0.102 -2.862,-1.001 -2.908,-0.848 -2.949,-0.695 -2.98,-0.539 -3.005,-0.383 -3.021,-0.226 -3.028,-0.066 -3.028,0.092 -3.019,0.25 -3.001,0.407 -2.977,0.564 -2.942,0.72 L 2.672,-39 0,-38.041 Z"
         style="fill:#ffffff;fill-opacity:1;stroke:#231f20;stroke-width:0.25;stroke-linecap:butt;stroke-linejoin:miter;stroke-miterlimit:3.864;stroke-dasharray:none;stroke-opacity:1"
         id="path1127" />
    </g>
    <g
       id="g1129"
       transform="matrix(0.35277777,0,0,-0.35277777,42.377431,42.377431)"
       style="fill:#ffffff;fill-opacity:1">
      <path
         d="m 0,0 h 41.558 v -38.045 l -0.265,-0.102 -2.862,-1.001 -2.908,-0.848 -2.949,-0.694 -2.98,-0.54 -3.005,-0.383 -3.021,-0.226 -3.028,-0.066 -3.028,0.092 -3.019,0.25 -3.001,0.407 -2.977,0.564 -2.942,0.72 L 2.672,-39 0,-38.041 Z"
         style="fill:#ffffff;fill-opacity:1;stroke:#231f20;stroke-width:0.25;stroke-linecap:butt;stroke-linejoin:miter;stroke-miterlimit:3.864;stroke-dasharray:none;stroke-opacity:1"
         id="path1131" />
    </g>
    <g
       id="g1133"
       transform="matrix(0.35277777,0,0,-0.35277777,26.502431,42.377431)"
       style="fill:#ffffff;fill-opacity:1">
      <path
         d="m 0,0 h 41.558 v -38.045 l -0.266,-0.102 -2.862,-1 -2.908,-0.849 -2.948,-0.694 -2.981,-0.54 -3.005,-0.383 -3.021,-0.226 -3.028,-0.066 -3.028,0.092 -3.018,0.25 -3.002,0.408 -2.976,0.564 -2.942,0.719 L 2.671,-39 0,-38.041 Z"
         style="fill:#ffffff;fill-opacity:1;stroke:#231f20;stroke-width:0.25;stroke-linecap:butt;stroke-linejoin:miter;stroke-miterlimit:3.864;stroke-dasharray:none;stroke-opacity:1"
         id="path1135" />
    </g>
    <g
       id="g1169"
       transform="matrix(0.35277777,0,0,-0.35277777,74.127431,26.502431)"
       style="fill:#fba100;fill-opacity:1">
      <path
         d="m 0,0 h 41.558 v -38.045 l -0.265,-0.102 -2.863,-1 -2.908,-0.849 -2.948,-0.694 -2.981,-0.54 -3.005,-0.383 -3.02,-0.226 -3.029,-0.066 -3.028,0.092 -3.018,0.25 -3.002,0.407 -2.976,0.565 -2.942,0.719 L 2.672,-39 0,-38.041 Z"
         style="fill:#fba100;fill-opacity:1;stroke:#231f20;stroke-width:0.25;stroke-linecap:butt;stroke-linejoin:miter;stroke-miterlimit:3.864;stroke-dasharray:none;stroke-opacity:1"
         id="path1171" />
    </g>
    <g
       id="g1173"
       transform="matrix(0.35277777,0,0,-0.35277777,58.252431,26.502431)"
       style="fill:#282828;fill-opacity:1;stroke:#ffffff;stroke-opacity:1">
      <path
         d="m 0,0 h 41.558 v -38.045 l -0.265,-0.102 -2.862,-1.001 -2.908,-0.848 -2.949,-0.694 -2.98,-0.54 -3.005,-0.383 -3.021,-0.225 -3.028,-0.067 -3.028,0.092 -3.019,0.25 -3.001,0.408 -2.977,0.564 -2.942,0.719 L 2.672,-39 0,-38.041 Z"
         style="fill:#282828;fill-opacity:1;stroke:#ffffff;stroke-width:0.25;stroke-linecap:butt;stroke-linejoin:miter;stroke-miterlimit:3.864;stroke-dasharray:none;stroke-opacity:1"
         id="path1175" />
    </g>
    <g
       id="g1177"
       transform="matrix(0.35277777,0,0,-0.35277777,42.377431,26.502431)"
       style="fill:#282828;fill-opacity:1;stroke:#ffffff;stroke-opacity:1">
      <path
         d="m 0,0 h 41.558 v -38.046 l -0.265,-0.101 -2.862,-1.001 -2.908,-0.848 -2.949,-0.695 -2.98,-0.539 -3.005,-0.384 -3.021,-0.225 -3.028,-0.067 -3.028,0.093 -3.019,0.25 -3.001,0.407 -2.977,0.564 -2.942,0.72 L 2.672,-39 0,-38.041 Z"
         style="fill:#282828;fill-opacity:1;stroke:#ffffff;stroke-width:0.25;stroke-linecap:butt;stroke-linejoin:miter;stroke-miterlimit:3.864;stroke-dasharray:none;stroke-opacity:1"
         id="path1179" />
    </g>
    <g
       id="g1181"
       transform="matrix(0.35277777,0,0,-0.35277777,26.502431,26.502431)"
       style="fill:#282828;fill-opacity:1;stroke:#ffffff;stroke-opacity:1">
      <path
         d="m 0,0 h 41.558 v -38.045 l -0.266,-0.102 -2.862,-1.001 -2.908,-0.848 -2.948,-0.695 -2.981,-0.539 -3.005,-0.383 -3.021,-0.226 -3.028,-0.066 -3.028,0.092 -3.018,0.25 -3.002,0.407 -2.976,0.564 -2.942,0.72 L 2.671,-39 0,-38.041 Z"
         style="fill:#282828;fill-opacity:1;stroke:#ffffff;stroke-width:0.25;stroke-linecap:butt;stroke-linejoin:miter;stroke-miterlimit:3.864;stroke-dasharray:none;stroke-opacity:1"
         id="path1183" />
    </g>
    <g
       id="g1471"
       transform="matrix(0.35277777,0,0,-0.35277777,42.12101,29.447232)" />
  </g>
  <g
     inkscape:groupmode="layer"
     id="layer4"
     inkscape:label="Alignment"
     style="display:none"
     sodipodi:insensitive="true">
    <path
       style="display:inline;fill:none;stroke:#000000;stroke-width:0.135528;stroke-linecap:butt;stroke-linejoin:miter;stroke-miterlimit:4;stroke-dasharray:none;stroke-opacity:1"
       d="M 81.4578,93.06821 V 22.258591"
       id="path1114-8-2" />
    <path
       style="display:inline;fill:none;stroke:#000000;stroke-width:0.135528;stroke-linecap:butt;stroke-linejoin:miter;stroke-miterlimit:4;stroke-dasharray:none;stroke-opacity:1"
       d="M 33.8328,93.06821 V 22.258591"
       id="path1114-8-2-0" />
    <path
       style="display:inline;fill:none;stroke:#000000;stroke-width:0.135528;stroke-linecap:butt;stroke-linejoin:miter;stroke-miterlimit:4;stroke-dasharray:none;stroke-opacity:1"
       d="M 49.7078,93.06821 V 22.258591"
       id="path1114-8-2-4" />
    <path
       style="display:inline;fill:none;stroke:#000000;stroke-width:0.135528;stroke-linecap:butt;stroke-linejoin:miter;stroke-miterlimit:4;stroke-dasharray:none;stroke-opacity:1"
       d="M 65.5828,93.06821 V 22.258591"
       id="path1114-8-2-3" />
    <path
       style="display:inline;fill:none;stroke:#000000;stroke-width:0.135528;stroke-linecap:butt;stroke-linejoin:miter;stroke-miterlimit:4;stroke-dasharray:none;stroke-opacity:1"
       d="M 86.482509,93.06821 V 22.258591"
       id="path1114-8-2-62" />
    <path
       style="display:inline;fill:none;stroke:#000000;stroke-width:0.135528;stroke-linecap:butt;stroke-linejoin:miter;stroke-miterlimit:4;stroke-dasharray:none;stroke-opacity:1"
       d="M 38.857512,93.06821 V 22.258591"
       id="path1114-8-2-0-0" />
    <path
       style="display:inline;fill:none;stroke:#000000;stroke-width:0.135528;stroke-linecap:butt;stroke-linejoin:miter;stroke-miterlimit:4;stroke-dasharray:none;stroke-opacity:1"
       d="M 54.732512,93.06821 V 22.258591"
       id="path1114-8-2-4-9" />
    <path
       style="display:inline;fill:none;stroke:#000000;stroke-width:0.135528;stroke-linecap:butt;stroke-linejoin:miter;stroke-miterlimit:4;stroke-dasharray:none;stroke-opacity:1"
       d="M 70.607512,93.06821 V 22.258591"
       id="path1114-8-2-3-4" />
    <path
       style="display:inline;fill:none;stroke:#000000;stroke-width:0.135528;stroke-linecap:butt;stroke-linejoin:miter;stroke-miterlimit:4;stroke-dasharray:none;stroke-opacity:1"
       d="M 76.433087,93.068206 V 22.258591"
       id="path1114-8-2-2" />
    <path
       style="display:inline;fill:none;stroke:#000000;stroke-width:0.135528;stroke-linecap:butt;stroke-linejoin:miter;stroke-miterlimit:4;stroke-dasharray:none;stroke-opacity:1"
       d="M 28.808082,93.068206 V 22.258591"
       id="path1114-8-2-0-4" />
    <path
       style="display:inline;fill:none;stroke:#000000;stroke-width:0.135528;stroke-linecap:butt;stroke-linejoin:miter;stroke-miterlimit:4;stroke-dasharray:none;stroke-opacity:1"
       d="M 44.683082,93.068206 V 22.258591"
       id="path1114-8-2-4-0" />
    <path
       style="display:inline;fill:none;stroke:#000000;stroke-width:0.135528;stroke-linecap:butt;stroke-linejoin:miter;stroke-miterlimit:4;stroke-dasharray:none;stroke-opacity:1"
       d="M 60.558082,93.068206 V 22.258591"
       id="path1114-8-2-3-3" />
    <path
       style="display:inline;mix-blend-mode:normal;fill:none;stroke:#000000;stroke-width:0.135528;stroke-linecap:butt;stroke-linejoin:miter;stroke-miterlimit:4;stroke-dasharray:none;stroke-opacity:1"
       d="M 93.135023,81.180688 H 22.325408"
       id="path1114-8-2-6" />
    <path
       style="display:inline;mix-blend-mode:normal;fill:none;stroke:#000000;stroke-width:0.135528;stroke-linecap:butt;stroke-linejoin:miter;stroke-miterlimit:4;stroke-dasharray:none;stroke-opacity:1"
       d="M 93.135023,65.305684 H 22.325403"
       id="path1114-8-2-6-7" />
    <path
       style="display:inline;mix-blend-mode:normal;fill:none;stroke:#000000;stroke-width:0.135528;stroke-linecap:butt;stroke-linejoin:miter;stroke-miterlimit:4;stroke-dasharray:none;stroke-opacity:1"
       d="M 93.135023,49.430684 H 22.325406"
       id="path1114-8-2-6-9" />
    <path
       style="display:inline;mix-blend-mode:normal;fill:none;stroke:#000000;stroke-width:0.135528;stroke-linecap:butt;stroke-linejoin:miter;stroke-miterlimit:4;stroke-dasharray:none;stroke-opacity:1"
       d="M 93.135023,33.555686 H 22.325413"
       id="path1114-8-2-6-94" />
    <path
       style="display:inline;mix-blend-mode:normal;fill:none;stroke:#000000;stroke-width:0.135528;stroke-linecap:butt;stroke-linejoin:miter;stroke-miterlimit:4;stroke-dasharray:none;stroke-opacity:1"
       d="M 93.135017,60.558091 H 22.325398"
       id="path1114-8-2-6-4" />
    <path
       style="display:inline;mix-blend-mode:normal;fill:none;stroke:#000000;stroke-width:0.135528;stroke-linecap:butt;stroke-linejoin:miter;stroke-miterlimit:4;stroke-dasharray:none;stroke-opacity:1"
       d="M 93.135017,44.683087 H 22.325393"
       id="path1114-8-2-6-7-6" />
    <path
       style="display:inline;mix-blend-mode:normal;fill:none;stroke:#000000;stroke-width:0.135528;stroke-linecap:butt;stroke-linejoin:miter;stroke-miterlimit:4;stroke-dasharray:none;stroke-opacity:1"
       d="M 93.135017,28.808087 H 22.325396"
       id="path1114-8-2-6-9-8" />
    <path
       style="display:inline;mix-blend-mode:normal;fill:none;stroke:#000000;stroke-width:0.135528;stroke-linecap:butt;stroke-linejoin:miter;stroke-miterlimit:4;stroke-dasharray:none;stroke-opacity:1"
       d="M 93.13501,76.433087 H 22.325396"
       id="path1114-8-2-6-94-4" />
    <path
       style="display:inline;mix-blend-mode:normal;fill:none;stroke:#000000;stroke-width:0.135528;stroke-linecap:butt;stroke-linejoin:miter;stroke-miterlimit:4;stroke-dasharray:none;stroke-opacity:1"
       d="M 93.135025,85.928284 H 22.325408"
       id="path1114-8-2-6-0" />
    <path
       style="display:inline;mix-blend-mode:normal;fill:none;stroke:#000000;stroke-width:0.135528;stroke-linecap:butt;stroke-linejoin:miter;stroke-miterlimit:4;stroke-dasharray:none;stroke-opacity:1"
       d="M 93.135025,70.053284 H 22.325403"
       id="path1114-8-2-6-7-62" />
    <path
       style="display:inline;mix-blend-mode:normal;fill:none;stroke:#000000;stroke-width:0.135528;stroke-linecap:butt;stroke-linejoin:miter;stroke-miterlimit:4;stroke-dasharray:none;stroke-opacity:1"
       d="M 93.135025,54.178276 H 22.325406"
       id="path1114-8-2-6-9-89" />
    <path
       style="display:inline;mix-blend-mode:normal;fill:none;stroke:#000000;stroke-width:0.135528;stroke-linecap:butt;stroke-linejoin:miter;stroke-miterlimit:4;stroke-dasharray:none;stroke-opacity:1"
       d="M 93.135025,38.30328 H 22.325413"
       id="path1114-8-2-6-94-9" />
  </g>
  <g
     inkscape:groupmode="layer"
     id="layer3"
     inkscape:label="Icons"
     style="display:inline;filter:url(#filter3055)"
     sodipodi:insensitive="true">
    <path
       style="fill:#000000;fill-opacity:1;stroke:#000000;stroke-width:0.275123;stroke-miterlimit:4;stroke-dasharray:none;stroke-opacity:1"
       d="m 64.877692,52.849984 c -0.407233,-0.05963 -0.726289,-0.211507 -1.0344,-0.492411 -0.579464,-0.528314 -1.674011,-1.565019 -1.680769,-1.591962 -0.01724,-0.06863 0.0035,-0.291874 0.03397,-0.37123 0.06005,-0.154971 0.192786,-0.287601 0.347235,-0.347003 0.105873,-0.04072 0.270106,-0.04958 0.371672,-0.02006 0.04246,0.01234 0.300607,0.133948 0.573702,0.270247 0.273086,0.136298 0.509848,0.247792 0.526121,0.247764 0.04367,-8.1e-5 0.115664,-0.04866 0.130681,-0.08815 0.0087,-0.02175 0.01317,-0.699142 0.01334,-1.837056 2.51e-4,-1.963907 -0.0017,-1.914437 0.07591,-2.047409 0.149676,-0.256839 0.47556,-0.361717 0.738074,-0.23753 0.04073,0.01929 0.07582,0.03294 0.0779,0.03033 0.0017,-0.0026 0.02088,-0.03654 0.04168,-0.07541 0.0208,-0.03887 0.0701,-0.10116 0.109486,-0.138423 0.224847,-0.21265 0.571466,-0.208438 0.789493,0.0096 0.03856,0.03858 0.08483,0.09925 0.10271,0.134825 0.01794,0.03557 0.03414,0.06724 0.03605,0.07037 0.0017,0.0031 0.02912,-0.0068 0.06048,-0.02203 0.09676,-0.04705 0.157414,-0.06086 0.263667,-0.06002 0.229206,0.0018 0.415717,0.123094 0.516538,0.335903 0.04237,0.08941 0.04255,0.09064 0.04697,0.342645 0.0043,0.230165 0.0061,0.252061 0.02686,0.243448 0.128151,-0.05404 0.163462,-0.06231 0.264256,-0.06197 0.233772,8.12e-4 0.419772,0.120469 0.521702,0.33563 l 0.04255,0.08973 0.0043,1.779968 c 0.0043,1.851311 0.0035,1.885607 -0.05217,2.109843 -0.113749,0.457423 -0.409192,0.86142 -0.82639,1.130059 -0.156452,0.10074 -0.386567,0.192137 -0.60748,0.241277 -0.121617,0.02705 -0.1723,0.02924 -0.761678,0.03286 -0.469822,0.0029 -0.662322,-6.58e-4 -0.752285,-0.01383 z m 1.288354,-0.276307 c 0.733871,-0.07136 1.316672,-0.630922 1.417467,-1.360939 0.0098,-0.07075 0.01447,-0.668878 0.01447,-1.830776 0,-1.890232 0.0043,-1.77599 -0.07799,-1.864219 -0.102623,-0.109439 -0.29604,-0.11798 -0.403421,-0.01782 -0.01742,0.01627 -0.04471,0.05377 -0.06066,0.08332 -0.02851,0.05299 -0.02894,0.06454 -0.03275,0.835727 l -0.0043,0.781991 -0.04081,0.04082 c -0.05927,0.05931 -0.132241,0.05749 -0.194588,-0.0049 l -0.04567,-0.04568 v -1.197368 c 0,-1.309553 0.0035,-1.249 -0.07799,-1.335903 -0.102623,-0.109439 -0.296041,-0.117981 -0.40343,-0.01782 -0.01742,0.01627 -0.04471,0.05377 -0.06066,0.08332 -0.02877,0.05344 -0.02894,0.0593 -0.03267,1.050565 l -0.0035,0.996831 -0.0409,0.04093 c -0.05615,0.05617 -0.128108,0.05682 -0.18977,0.0017 l -0.04385,-0.03919 -0.0069,-1.146332 -0.0069,-1.146332 -0.03258,-0.0569 c -0.06239,-0.108975 -0.185992,-0.163214 -0.310832,-0.136439 -0.09972,0.02139 -0.191182,0.112605 -0.212482,0.211927 -0.0104,0.04842 -0.01499,0.409723 -0.01499,1.169933 v 1.09987 l -0.04133,0.04133 c -0.05658,0.05659 -0.128333,0.0574 -0.190185,0.0022 l -0.04385,-0.03919 -0.0069,-1.00528 c -0.0069,-1.104912 -0.0017,-1.03915 -0.08948,-1.122112 -0.105525,-0.10024 -0.288319,-0.103406 -0.391904,-0.0068 -0.01742,0.01627 -0.04471,0.05377 -0.06066,0.08332 l -0.02894,0.05373 -0.0069,1.874005 -0.0069,1.874004 -0.03085,0.0577 c -0.04749,0.08893 -0.11861,0.15949 -0.202126,0.2005 -0.06438,0.03161 -0.09294,0.03735 -0.186183,0.03735 h -0.110144 l -0.521242,-0.259032 c -0.558183,-0.277389 -0.594101,-0.290364 -0.712477,-0.257351 -0.08667,0.02417 -0.193141,0.129677 -0.216918,0.214959 -0.03579,0.128413 -0.07175,0.0864 0.649965,0.759865 0.997045,0.930408 1.026689,0.95733 1.133817,1.029624 0.210237,0.141862 0.470248,0.237737 0.713318,0.263021 0.157153,0.01635 1.05128,0.01769 1.214464,0.0018 z"
       id="path3594" />
    <path
       d="m 68.353207,32.311099 q -0.177247,0 -0.331372,-0.0655 -0.150273,-0.0655 -0.265869,-0.181098 -0.115596,-0.115588 -0.181098,-0.265867 -0.06552,-0.154128 -0.06552,-0.331373 0,-0.173393 0.06552,-0.327519 0.06552,-0.154126 0.181098,-0.265867 0.115587,-0.115588 0.265869,-0.1811 0.154125,-0.06935 0.331372,-0.0655 0.173394,-0.0038 0.327519,0.0655 0.154125,0.0655 0.269721,0.1811 0.111744,0.111742 0.181098,0.265867 0.06552,0.154126 0.06552,0.327519 0,0.177245 -0.06552,0.331373 -0.06552,0.150272 -0.181098,0.265867 -0.115587,0.115587 -0.269721,0.181098 -0.154125,0.0655 -0.327519,0.0655 m 0,-1.202186 q -0.150274,0 -0.26587,0.104039 -0.09634,0.104039 -0.09634,0.254309 0,0.150274 0.09634,0.258161 0.115587,0.09634 0.26587,0.09634 0.150273,0 0.254313,-0.09634 0.107883,-0.09633 0.107883,-0.258161 0,-0.150272 -0.107883,-0.254309 -0.10404,-0.104039 -0.254313,-0.104039 m 1.082745,1.803279 v 1.799428 q 0,0.242748 -0.09248,0.462379 -0.100179,0.21963 -0.258165,0.381463 -0.165681,0.165686 -0.385317,0.258161 -0.227331,0.09634 -0.466228,0.09634 -0.146421,0 -0.292842,-0.04238 -0.150273,-0.02697 -0.273573,-0.09634 -0.09248,0.3044 -0.273573,0.554856 -0.181098,0.250455 -0.423855,0.4277 -0.242748,0.177246 -0.53559,0.269722 -0.292833,0.104039 -0.608796,0.104039 -0.369901,0 -0.69742,-0.12715 -0.315963,-0.127151 -0.57798,-0.362199 -0.254304,-0.219629 -0.419994,-0.524029 -0.169533,-0.308254 -0.219627,-0.67045 h -1.861075 q -0.127152,0 -0.227331,-0.09634 -0.09248,-0.09247 -0.09248,-0.223481 v -3.213535 q 0,-0.131011 0.09248,-0.227338 0.100179,-0.09247 0.227331,-0.09247 h 2.762713 q -0.111744,-0.231189 -0.111744,-0.481646 0,-0.235042 0.08865,-0.443111 0.08478,-0.19266 0.238896,-0.354491 0.154134,-0.150275 0.362205,-0.238898 0.192654,-0.08861 0.431551,-0.08861 0.235044,0 0.439263,0.08861 0.20421,0.08861 0.358344,0.238898 0.154125,0.161832 0.238896,0.354491 0.08865,0.208069 0.08865,0.443111 0,0.23119 -0.08865,0.43926 -0.08478,0.204219 -0.238896,0.354492 -0.154134,0.154126 -0.358344,0.24275 -0.204219,0.08861 -0.439263,0.08861 -0.05778,0 -0.119448,-0.0077 -0.05778,-0.0076 -0.119449,-0.01927 v 0.346786 h 3.490967 q 0.150273,0 0.258165,0.10404 0.104031,0.104038 0.104031,0.254308 m -3.6104,-2.438995 q -0.134856,0 -0.242749,0.04238 -0.127152,0.0501 -0.215784,0.138714 -0.08478,0.08861 -0.134847,0.204218 -0.05013,0.119446 -0.05013,0.250455 0,0.134855 0.05013,0.250454 0.05013,0.115604 0.134847,0.20422 0.08865,0.08477 0.215784,0.138713 0.107884,0.0501 0.242749,0.0501 0.131004,0 0.2466,-0.0501 0.115587,-0.05394 0.204219,-0.138713 0.08865,-0.08862 0.138708,-0.204218 0.05391,-0.115587 0.05391,-0.250456 0,-0.13101 -0.05391,-0.250455 -0.05013,-0.115603 -0.138708,-0.204218 -0.08865,-0.08861 -0.204219,-0.138714 -0.115605,-0.04238 -0.2466,-0.04238 m -1.868788,2.381253 h 0.724392 v -0.601093 h -2.049877 v 0.601093 h 0.724393 v 1.926582 h 0.601092 m 3.31372,0.419993 v -2.165476 h -1.687681 v 2.088414 q 0,0.13101 -0.09248,0.223483 -0.100179,0.09634 -0.22734,0.09634 h -0.866952 q 0.05013,0.258161 0.181098,0.481645 0.131004,0.21963 0.315954,0.381464 0.18495,0.157979 0.423846,0.250455 0.235044,0.08091 0.508618,0.08091 0.296694,0 0.558711,-0.10404 0.262017,-0.115587 0.462384,-0.312105 0.196506,-0.196511 0.30825,-0.458526 0.115596,-0.262018 0.115596,-0.562564 m 1.683838,-0.48935 v -1.676148 h -1.202185 v 2.200157 q 0.09633,0.09634 0.219627,0.14642 0.115605,0.04623 0.262017,0.04623 0.150274,0 0.281278,-0.0578 0.131013,-0.0578 0.22734,-0.154127 0.100179,-0.09634 0.154125,-0.231189 0.05778,-0.131011 0.05778,-0.273575 z"
       id="path2311"
       style="fill:#ffffff;fill-opacity:1;stroke-width:0.385315" />
    <path
       d="m 84.23592,29.983811 h -5.556249 c -0.440532,0 -0.793746,0.35322 -0.793746,0.793751 v 1.587499 h 0.793746 v -1.587499 h 5.556249 v 5.55625 h -5.556249 v -1.587501 h -0.793746 v 1.587501 a 0.79375001,0.79375001 0 0 0 0.793746,0.793749 h 5.556249 a 0.79375001,0.79375001 0 0 0 0.793755,-0.793749 v -5.55625 c 0,-0.440531 -0.357192,-0.793751 -0.793755,-0.793751 m -3.540123,4.992689 0.563562,0.563562 1.984374,-1.984376 -1.984374,-1.984374 -0.563562,0.559593 1.027908,1.027906 h -3.83778 v 0.793751 h 3.83778 z"
       id="path2404"
       style="stroke-width:0.396954;stroke-miterlimit:4;stroke-dasharray:none" />
    <g
       id="path3194"
       style="opacity:1" />
    <g
       id="g3298"
       transform="matrix(0.94703745,0,0,0.94703745,3.840388,6.8796723)">
      <path
         style="color:#000000;font-style:normal;font-variant:normal;font-weight:normal;font-stretch:normal;font-size:medium;line-height:normal;font-family:sans-serif;font-variant-ligatures:normal;font-variant-position:normal;font-variant-caps:normal;font-variant-numeric:normal;font-variant-alternates:normal;font-variant-east-asian:normal;font-feature-settings:normal;font-variation-settings:normal;text-indent:0;text-align:start;text-decoration:none;text-decoration-line:none;text-decoration-style:solid;text-decoration-color:#000000;letter-spacing:normal;word-spacing:normal;text-transform:none;writing-mode:lr-tb;direction:ltr;text-orientation:mixed;dominant-baseline:auto;baseline-shift:baseline;text-anchor:start;white-space:normal;shape-padding:0;shape-margin:0;inline-size:0;clip-rule:nonzero;display:inline;overflow:visible;visibility:visible;opacity:1;isolation:auto;mix-blend-mode:normal;color-interpolation:sRGB;color-interpolation-filters:linearRGB;solid-color:#000000;solid-opacity:1;vector-effect:none;fill:#000000;fill-opacity:1;fill-rule:nonzero;stroke:none;stroke-linecap:butt;stroke-linejoin:miter;stroke-miterlimit:4;stroke-dasharray:none;stroke-dashoffset:0;stroke-opacity:1;filter:url(#filter3055);color-rendering:auto;image-rendering:auto;shape-rendering:auto;text-rendering:auto;enable-background:accumulate;stop-color:#000000;stop-opacity:1"
         d="m 34.638672,42.822266 c 0.225051,0.0088 0.454652,-0.0186 0.676559,0.01561 0.195311,0.110349 0.09919,0.355729 0.122269,0.53809 0,1.716475 0,3.43295 0,5.149425 -0.438151,-0.438151 -0.876302,-0.876302 -1.314453,-1.314453 -1.503793,-0.0026 -3.008093,0.0053 -4.511569,-0.0039 -0.235912,-0.07243 -0.137508,-0.345076 -0.158353,-0.528217 0.02378,-0.0971 -0.06983,-0.311592 0.09792,-0.264714 1.695875,0 3.391749,0 5.087623,0 0,-1.197265 0,-2.394531 0,-3.591796 z"
         id="path3293" />
      <path
         id="path3192"
         style="stroke-width:0.398923"
         d="m 28.297014,41.335916 a 0.3989229,0.3989229 0 0 0 -0.398923,0.398923 v 5.58492 l 1.595691,-1.595691 h 3.989229 a 0.3989229,0.3989229 0 0 0 0.398923,-0.398923 v -3.590306 a 0.3989229,0.3989229 0 0 0 -0.398923,-0.398923 z m 0.398922,0.797846 h 4.388152 v 2.79246 h -3.921183 l -0.466969,0.466447 z" />
    </g>
    <g
       id="g3245"
       transform="matrix(0.93152558,0,0,0.93152558,7.441712,22.996095)">
      <path
         style="stroke-width:0.330732"
         d="m 78.077616,44.750542 h -1.653705 v -0.661464 h 1.653659 v 0.661464"
         id="path3215" />
      <path
         style="stroke-width:0.330732"
         d="m 77.06227,42.547867 0.466331,-0.466331 0.935972,0.93597 -0.466333,0.466333 -0.93597,-0.935972"
         id="path3213" />
      <path
         style="stroke-width:0.330732"
         d="m 77.06227,46.291752 0.93597,-0.93597 0.466333,0.466331 -0.935972,0.935972 -0.466331,-0.466333"
         id="path3211" />
      <path
         style="stroke-width:0.330732"
         d="m 79.069812,41.443223 h 0.661464 v 1.653659 h -0.661464 v -1.653659"
         id="path3209" />
      <path
         style="stroke-width:0.330732"
         d="m 80.336516,43.017506 0.93597,-0.93597 0.466333,0.466331 -0.935972,0.935972 -0.466331,-0.466333"
         id="path3207" />
      <path
         style="stroke-width:0.330732"
         d="m 80.723472,44.750576 v -0.661498 h 1.65366 v 0.661464 h -1.65366"
         id="path3205" />
      <path
         id="path3203"
         style="stroke:#000000;stroke-width:0.405735;stroke-linecap:butt;stroke-linejoin:miter;stroke-miterlimit:4;stroke-dasharray:none;stroke-opacity:1"
         d="m 299.79688,167.49805 a 0.95000791,0.95000791 0 0 0 -0.95118,0.94922 v 14.31445 c 0,0.52501 0.42618,0.94922 0.95118,0.94922 0.2375,0 0.43708,-0.0743 0.5996,-0.19922 l 2.38672,-1.9375 2.07618,4.52344 c 0.16251,0.33751 0.49882,0.53906 0.86132,0.53906 0.1375,0 0.27462,-0.002 0.41211,-0.10156 l 3.45117,-1.59961 c 0.475,-0.225 0.69922,-0.79922 0.44922,-1.26172 l -2.08789,-4.53711 3.01367,-0.5625 c 0.19998,-0.0625 0.38711,-0.15118 0.53711,-0.32617 0.33752,-0.40002 0.28709,-0.98711 -0.15039,-1.34961 l -10.92382,-9.1875 -0.0137,0.0117 c -0.16248,-0.13754 -0.37381,-0.22461 -0.61132,-0.22461 z m 0.92382,2.88672 7.97461,6.71289 -1.09961,0.22461 -0.79882,0.15039 c -0.78751,0.16252 -1.23868,1.03749 -0.88868,1.75 l 0.33789,0.72656 1.69922,3.67383 -1.77343,0.82617 -1.70118,-3.66406 -0.32422,-0.72461 c -0.33751,-0.73751 -1.27538,-0.96173 -1.90039,-0.44922 l -0.63671,0.5 -0.88868,0.71289 z"
         transform="scale(0.26458333)" />
    </g>
    <path
       d="m 35.825526,65.117691 c 0,1.12796 -0.955008,1.917533 -1.992726,1.917533 -1.037727,0 -1.992735,-0.789573 -1.992735,-1.917533 h -0.639171 c 0,1.282115 1.022679,2.342398 2.255922,2.526631 v 1.233237 h 0.751968 v -1.233237 c 1.233243,-0.184233 2.255922,-1.244516 2.255922,-2.526631 m -3.083094,-2.293519 c 0,-0.248152 0.203031,-0.451185 0.451188,-0.451185 0.248148,0 0.451179,0.203033 0.451179,0.451185 l -0.0036,2.331117 c 0,0.248151 -0.199269,0.451184 -0.447417,0.451184 -0.248157,0 -0.451188,-0.203033 -0.451188,-0.451184 m 0.451188,1.090362 a 1.1279606,1.1279606 0 0 0 1.127961,-1.12796 V 62.86177 a 1.1279606,1.1279606 0 0 0 -1.127961,-1.127961 1.1279606,1.1279606 0 0 0 -1.127961,1.127961 v 2.255921 a 1.1279606,1.1279606 0 0 0 1.127961,1.12796 z"
       id="path2769"
       style="stroke-width:0.375987" />
    <path
       d="m 52.5653,62.805371 h -1.132281 l -0.653661,-0.714375 h -2.143116 l -0.653661,0.714375 H 46.8503 a 0.71437494,0.71437494 0 0 0 -0.714375,0.714374 v 4.28625 a 0.71437494,0.71437494 0 0 0 0.714375,0.714376 h 5.715 a 0.71437494,0.71437494 0 0 0 0.714375,-0.714376 v -4.28625 A 0.71437494,0.71437494 0 0 0 52.5653,62.805371 m 0,5.000624 h -5.715 v -4.28625 h 1.446606 l 0.653652,-0.714374 h 1.514475 l 0.653661,0.714374 H 52.5653 v 4.28625 m -2.8575,-3.929061 a 1.7859374,1.7859374 0 0 0 -1.785942,1.785937 1.7859374,1.7859374 0 0 0 1.785942,1.785937 1.7859374,1.7859374 0 0 0 1.785933,-1.785937 1.7859374,1.7859374 0 0 0 -1.785933,-1.785937 m 0,2.857499 a 1.0715625,1.0715625 0 0 1 -1.071558,-1.071562 1.0715625,1.0715625 0 0 1 1.071558,-1.071562 1.0715625,1.0715625 0 0 1 1.071558,1.071562 1.0715625,1.0715625 0 0 1 -1.071558,1.071562 z"
       id="path2790"
       style="stroke-width:0.357188" />
    <path
       d="m 69.154675,62.707959 v 3.896588 c 0,0.360435 -0.288999,0.649432 -0.649431,0.649432 h -1.948293 v -0.649432 h 1.948293 v -3.896588 h -5.844888 v 3.896588 h 1.948293 v 0.649432 h -1.948293 c -0.357183,0 -0.649431,-0.288996 -0.649431,-0.649432 v -3.896588 c 0,-0.360433 0.288999,-0.649433 0.649431,-0.649433 h 5.844888 c 0.357183,0 0.649431,0.289 0.649431,0.649433 M 65.907511,65.6304 h 0.974151 L 65.5828,64.331535 64.283938,65.6304 h 0.974142 v 2.273011 h -0.974142 v 0.649431 h 2.597724 v -0.649431 h -0.974151 z"
       id="path2811"
       style="stroke-width:0.324713" />
    <path
       d="m 83.600925,51.573808 v 0.714375 H 78.6003 A 0.71437497,0.71437497 0 0 1 77.885925,51.573808 V 48.001934 H 78.6003 v 3.571874 m 6.429375,-4.286251 v 2.857501 A 0.71437497,0.71437497 0 0 1 84.3153,50.859433 h -4.28625 a 0.71437497,0.71437497 0 0 1 -0.714375,-0.714375 v -2.857501 a 0.71437497,0.71437497 0 0 1 0.714375,-0.714373 h 4.28625 a 0.71437497,0.71437497 0 0 1 0.714375,0.714373 m -0.714375,0 h -4.28625 v 2.857501 h 4.28625 z"
       id="path2832"
       style="stroke-width:0.357188" />
    <text
       xml:space="preserve"
       style="font-style:normal;font-weight:normal;font-size:8.46667px;line-height:1.25;font-family:sans-serif;fill:#000000;fill-opacity:1;stroke:none;stroke-width:0.264583"
       x="32.414799"
       y="84.206863"
       id="text2845"><tspan
         sodipodi:role="line"
         id="tspan2843"
         x="32.414799"
         y="84.206863"
         style="font-style:normal;font-variant:normal;font-weight:normal;font-stretch:normal;font-size:8.46667px;font-family:'Robaga Rounded';-inkscape-font-specification:'Robaga Rounded';stroke-width:0.264583">1</tspan></text>
    <text
       xml:space="preserve"
       style="font-style:normal;font-weight:normal;font-size:8.46667px;line-height:1.25;font-family:sans-serif;fill:#000000;fill-opacity:1;stroke:none;stroke-width:0.264583"
       x="47.533257"
       y="84.237869"
       id="text2845-3"><tspan
         sodipodi:role="line"
         id="tspan2843-7"
         x="47.533257"
         y="84.237869"
         style="font-style:normal;font-variant:normal;font-weight:normal;font-stretch:normal;font-size:8.46667px;font-family:'Robaga Rounded';-inkscape-font-specification:'Robaga Rounded';stroke-width:0.264583">2</tspan></text>
    <text
       xml:space="preserve"
       style="font-style:normal;font-weight:normal;font-size:8.46667px;line-height:1.25;font-family:sans-serif;fill:#000000;fill-opacity:1;stroke:none;stroke-width:0.264583"
       x="63.503338"
       y="84.206863"
       id="text2845-0"><tspan
         sodipodi:role="line"
         id="tspan2843-6"
         x="63.503338"
         y="84.206863"
         style="font-style:normal;font-variant:normal;font-weight:normal;font-stretch:normal;font-size:8.46667px;font-family:'Robaga Rounded';-inkscape-font-specification:'Robaga Rounded';stroke-width:0.264583">3</tspan></text>
    <text
       xml:space="preserve"
       style="font-style:normal;font-weight:normal;font-size:8.46667px;line-height:1.25;font-family:sans-serif;fill:#000000;fill-opacity:1;stroke:none;stroke-width:0.264583"
       x="79.169563"
       y="84.206863"
       id="text2845-7"><tspan
         sodipodi:role="line"
         id="tspan2843-61"
         x="79.169563"
         y="84.206863"
         style="font-style:normal;font-variant:normal;font-weight:normal;font-stretch:normal;font-size:8.46667px;font-family:'Robaga Rounded';-inkscape-font-specification:'Robaga Rounded';stroke-width:0.264583">4</tspan></text>
    <text
       xml:space="preserve"
       style="font-style:normal;font-variant:normal;font-weight:normal;font-stretch:normal;font-size:4.23333px;line-height:1.25;font-family:'Robaga Rounded';-inkscape-font-specification:'Robaga Rounded';fill:#faf8f5;fill-opacity:1;stroke:none;stroke-width:0.264583"
       x="37.163498"
       y="86.522491"
       id="text2845-1"><tspan
         sodipodi:role="line"
         id="tspan2843-9"
         x="37.163498"
         y="86.522491"
         style="font-style:normal;font-variant:normal;font-weight:normal;font-stretch:normal;font-size:4.23333px;font-family:'Robaga Rounded';-inkscape-font-specification:'Robaga Rounded';fill:#faf8f5;fill-opacity:1;stroke-width:0.264583">5</tspan></text>
    <text
       xml:space="preserve"
       style="font-style:normal;font-variant:normal;font-weight:normal;font-stretch:normal;font-size:4.23333px;line-height:1.25;font-family:'Robaga Rounded';-inkscape-font-specification:'Robaga Rounded';fill:#faf8f5;fill-opacity:1;stroke:none;stroke-width:0.264583"
       x="52.879333"
       y="86.535927"
       id="text2845-1-1"><tspan
         sodipodi:role="line"
         id="tspan2843-9-0"
         x="52.879333"
         y="86.535927"
         style="font-style:normal;font-variant:normal;font-weight:normal;font-stretch:normal;font-size:4.23333px;font-family:'Robaga Rounded';-inkscape-font-specification:'Robaga Rounded';fill:#faf8f5;fill-opacity:1;stroke-width:0.264583">6</tspan></text>
    <text
       xml:space="preserve"
       style="font-style:normal;font-variant:normal;font-weight:normal;font-stretch:normal;font-size:4.23333px;line-height:1.25;font-family:'Robaga Rounded';-inkscape-font-specification:'Robaga Rounded';fill:#faf8f5;fill-opacity:1;stroke:none;stroke-width:0.264583"
       x="69.057137"
       y="86.522491"
       id="text2845-1-3"><tspan
         sodipodi:role="line"
         id="tspan2843-9-4"
         x="69.057137"
         y="86.522491"
         style="font-style:normal;font-variant:normal;font-weight:normal;font-stretch:normal;font-size:4.23333px;font-family:'Robaga Rounded';-inkscape-font-specification:'Robaga Rounded';fill:#faf8f5;fill-opacity:1;stroke-width:0.264583">7</tspan></text>
    <text
       xml:space="preserve"
       style="font-style:normal;font-variant:normal;font-weight:normal;font-stretch:normal;font-size:4.23333px;line-height:1.25;font-family:'Robaga Rounded';-inkscape-font-specification:'Robaga Rounded';fill:#faf8f5;fill-opacity:1;stroke:none;stroke-width:0.264583"
       x="84.600372"
       y="86.535927"
       id="text2845-1-0"><tspan
         sodipodi:role="line"
         id="tspan2843-9-05"
         x="84.600372"
         y="86.535927"
         style="font-style:normal;font-variant:normal;font-weight:normal;font-stretch:normal;font-size:4.23333px;font-family:'Robaga Rounded';-inkscape-font-specification:'Robaga Rounded';fill:#faf8f5;fill-opacity:1;stroke-width:0.264583">8</tspan></text>
    <path
       style="fill:#ffffff;fill-opacity:1;stroke:#ffffff;stroke-width:0.190993;stroke-miterlimit:4;stroke-dasharray:none;stroke-opacity:1"
       d="m 48.030985,37.020385 c -0.478126,-0.06406 -0.888255,-0.273496 -1.226244,-0.626197 -0.315479,-0.329216 -0.500343,-0.715446 -0.554683,-1.158886 -0.02775,-0.226399 -0.02775,-3.125201 0,-3.351599 0.113703,-0.927854 0.860424,-1.671539 1.79238,-1.785093 0.217566,-0.02651 3.12511,-0.0253 3.342919,0.0013 0.44344,0.05435 0.829672,0.239207 1.158882,0.554687 0.311091,0.29811 0.490215,0.610084 0.595249,1.036709 0.03709,0.150694 0.03854,0.206365 0.04516,1.739901 0.0045,1.011951 -3.6e-5,1.647076 -0.01206,1.758216 -0.05133,0.47275 -0.2335,0.865896 -0.558139,1.204672 -0.298086,0.311064 -0.609911,0.490114 -1.036709,0.595276 -0.1515,0.03733 -0.199628,0.03846 -1.794848,0.04219 -0.90154,0.0021 -1.689868,-0.0029 -1.751825,-0.01126 z m 3.327375,-0.329903 c 0.08534,-0.01053 0.235658,-0.04656 0.333999,-0.08004 0.483031,-0.16448 0.885507,-0.557721 1.057603,-1.033334 0.106112,-0.293252 0.109504,-0.355466 0.109622,-2.008928 7.2e-5,-0.935127 -0.0072,-1.560881 -0.01904,-1.657484 -0.02539,-0.205854 -0.120195,-0.478244 -0.230289,-0.661774 -0.183685,-0.306209 -0.512097,-0.587221 -0.829155,-0.709492 -0.323922,-0.124916 -0.217792,-0.118089 -1.952487,-0.125597 -1.734523,-0.0075 -1.813811,-0.004 -2.101848,0.0945 -0.260688,0.0891 -0.448581,0.207904 -0.654521,0.413842 -0.278335,0.278331 -0.447909,0.617897 -0.493661,0.988517 -0.02594,0.209809 -0.02594,3.087806 0,3.297615 0.04571,0.370621 0.215326,0.710185 0.493661,0.988516 0.115199,0.115202 0.224966,0.204188 0.324857,0.263362 0.177401,0.105088 0.457105,0.205389 0.637054,0.228442 0.185944,0.02383 3.132926,0.02547 3.32422,0.0019 z m -3.173425,-1.83217 c -0.115362,-0.0089 -0.277139,-0.118853 -0.36631,-0.205519 -0.106103,-0.103126 -0.167435,-0.200393 -0.214582,-0.340367 -0.03564,-0.105689 -0.03727,-0.153521 -0.03727,-1.046214 v -0.935463 l 0.04498,-0.04496 0.04498,-0.04495 h 1.171342 c 1.098176,0 1.178316,0.0022 1.282832,0.03469 0.214619,0.0668 0.39172,0.217603 0.488963,0.416373 0.02648,0.05411 0.05133,0.09837 0.05522,0.09837 0.0037,0 0.227097,-0.137571 0.495928,-0.305715 0.449405,-0.281091 0.49561,-0.305715 0.573628,-0.305715 0.161486,0 0.280719,0.113531 0.301704,0.287267 0.0064,0.05238 0.0091,0.544398 0.0054,1.093383 -0.0054,0.959695 -0.0072,1.00055 -0.04235,1.06034 -0.07363,0.125001 -0.215136,0.183941 -0.339086,0.141237 -0.03691,-0.01272 -0.25472,-0.140509 -0.484066,-0.284001 -0.229355,-0.143492 -0.428485,-0.265301 -0.442523,-0.270685 -0.02113,-0.0082 -0.02549,0.04015 -0.02549,0.282528 0,0.284906 -9.06e-4,0.293549 -0.04489,0.340781 l -0.04489,0.04847 -1.177599,-0.0019 c -0.419253,-9.64e-4 -0.869374,0.01109 -1.246131,-0.01794 z m 2.180083,-1.130865 -0.0054,-0.821051 -0.05532,-0.08947 c -0.06457,-0.104401 -0.182543,-0.200376 -0.279368,-0.227267 -0.04326,-0.01201 -0.445234,-0.01898 -1.098421,-0.01904 l -1.030207,-1.02e-4 v 0.789988 c 0,0.552522 0.0064,0.811597 0.02149,0.861876 0.02992,0.09996 0.151791,0.231647 0.261649,0.282804 l 0.09226,0.04297 1.049233,1.85e-4 1.049233,1.82e-4 -0.0054,-0.82105 z m 1.340844,-0.250362 c 0,-0.728043 -0.0045,-0.924759 -0.02285,-0.924261 -0.0126,3.49e-4 -0.237172,0.135103 -0.499074,0.299453 l -0.476186,0.298819 v 0.324649 0.324649 l 0.476186,0.300135 c 0.261902,0.165075 0.486486,0.300432 0.499074,0.300795 0.01805,5.17e-4 0.02285,-0.196181 0.02285,-0.924239 z"
       id="path3049"
       sodipodi:nodetypes="csscscssccsscccccsscssccsscsssccsssscccscsssscccsscscccsccssscscscccccssscccsss" />
    <circle
       style="fill:#fba100;fill-opacity:1;stroke:none;stroke-width:0.210608;stroke-miterlimit:4;stroke-dasharray:none;stroke-dashoffset:0;stroke-opacity:1"
       id="path3059"
       cx="33.832802"
       cy="33.555687"
       r="1.8898809" />
    <g
       id="path3194-5"
       style="display:inline;filter:url(#filter3055)"
       transform="translate(-14.018453,9.231695)" />
    <g
       id="g3351"
       transform="matrix(0.90000012,0,0,0.90000012,6.7402953,8.5598984)">
      <path
         d="m 50.916666,41.443228 h -6.350001 c -0.436562,0 -0.793749,0.357187 -0.793749,0.79375 v 7.14375 l 1.587499,-1.587499 h 5.556251 c 0.436561,0 0.793749,-0.357188 0.793749,-0.793751 v -4.7625 c 0,-0.436563 -0.357188,-0.79375 -0.793749,-0.79375 m 0,5.55625 h -5.873751 l -0.47625,0.47625 v -5.23875 h 6.350001 v 4.7625"
         id="path2566"
         style="stroke-width:0.396874"
         sodipodi:nodetypes="cssccsssccccccc" />
      <text
         xml:space="preserve"
         style="font-style:normal;font-weight:normal;font-size:4.93889px;line-height:1.25;font-family:sans-serif;fill:#000000;fill-opacity:1;stroke:none;stroke-width:0.264583"
         x="46.546734"
         y="46.406021"
         id="text3346"><tspan
           sodipodi:role="line"
           id="tspan3344"
           x="46.546734"
           y="46.406021"
           style="font-style:normal;font-variant:normal;font-weight:bold;font-stretch:normal;font-size:4.93889px;font-family:Roboto;-inkscape-font-specification:'Roboto Bold';stroke-width:0.264583">?</tspan></text>
    </g>
    <circle
       style="display:inline;fill:#fba100;fill-opacity:1;stroke:none;stroke-width:0.210608;stroke-miterlimit:4;stroke-dasharray:none;stroke-dashoffset:0;stroke-opacity:1;filter:url(#filter3055)"
       id="path3059-6"
       cx="36.002228"
       cy="66.523811"
       r="1.8898809"
       transform="matrix(0.45499996,0,0,0.45499996,44.17707,39.784953)" />
    <circle
       style="display:inline;fill:#fba100;fill-opacity:1;stroke:none;stroke-width:0.210608;stroke-miterlimit:4;stroke-dasharray:none;stroke-dashoffset:0;stroke-opacity:1;filter:url(#filter3055-0)"
       id="path3059-6-7"
       cx="36.002228"
       cy="66.523811"
       r="1.8898809"
       transform="matrix(0.45499996,0,0,0.45499996,12.42707,39.784953)" />
    <circle
       style="display:inline;fill:#fba100;fill-opacity:1;stroke:none;stroke-width:0.210608;stroke-miterlimit:4;stroke-dasharray:none;stroke-dashoffset:0;stroke-opacity:1;filter:url(#filter3055-4)"
       id="path3059-6-4"
       cx="36.002228"
       cy="66.523811"
       r="1.8898809"
       transform="matrix(0.45499996,0,0,0.45499996,60.052075,39.784953)" />
    <circle
       style="display:inline;mix-blend-mode:normal;fill:#fba100;fill-opacity:1;stroke:none;stroke-width:0.210608;stroke-miterlimit:4;stroke-dasharray:none;stroke-dashoffset:0;stroke-opacity:1;filter:url(#filter3055-9)"
       id="path3059-6-9"
       cx="36.002228"
       cy="66.523811"
       r="1.8898809"
       transform="matrix(0.45499996,0,0,0.45499996,28.30207,39.784953)" />
  </g>
  <g
     inkscape:groupmode="layer"
     id="layer6"
     inkscape:label="Icons (Temp)"
     style="display:none"
     sodipodi:insensitive="true">
    <path
       d="m 70.834298,70.847034 h 0.453571 v -1.5875 h -0.453571 m -0.907143,1.5875 h 0.453572 v -1.5875 h -0.453572 z"
       id="path1490"
       style="display:inline;stroke-width:0.113392;filter:url(#filter3055)" />
    <text
       xml:space="preserve"
       style="font-style:normal;font-variant:normal;font-weight:normal;font-stretch:normal;font-size:2.11667px;line-height:1.25;font-family:'Robaga Rounded';-inkscape-font-specification:'Robaga Rounded';display:inline;fill:#000000;fill-opacity:1;stroke:none;stroke-width:0.264583;filter:url(#filter3055)"
       x="36.073994"
       y="70.802078"
       id="text2845-1-6"><tspan
         sodipodi:role="line"
         id="tspan2843-9-2"
         x="36.073994"
         y="70.802078"
         style="font-style:normal;font-variant:normal;font-weight:bold;font-stretch:normal;font-size:2.11667px;font-family:'Robaga Rounded';-inkscape-font-specification:'Robaga Rounded Bold';fill:#000000;fill-opacity:1;stroke-width:0.264583">PTT</tspan></text>
  </g>
</svg>
